<svg width="64" height="64" viewBox="0 0 64 64" fill="none" xmlns="http://www.w3.org/2000/svg">
  <circle cx="32" cy="32" r="32" fill="#111"/>
  <path fill="#fff" d="M41.4 25.6c-.7 0-1.4-.3-1.8-.8l-1.4-1.5c-.5-.5-1.3-.5-1.8 0l-1.2 1.3c-.6.6-1.4 1-2.3 1H11.6c-.6 1.7-.9 3.4-1 5.2h20.2c.5 0 .9-.2 1.3-.5l1.7-1.7c.3-.3.7-.5 1.1-.5h.1c.4 0 .8.2 1.1.5l1.4 1.5c.5.5 1.1.8 1.8.8h14.1c-.1-1.8-.5-3.5-1-5.2h-11Zm-17.8 14c.5 0 .9-.2 1.3-.5l1.7-1.7c.3-.3.7-.5 1.1-.5h.1c.4 0 .8.2 1.1.5l1.4 1.5c.5.5 1.1.8 1.8.8h19.2c.9-1.6 1.5-3.4 1.9-5.2H31.7c-.7 0-1.4-.3-1.8-.8l-1.4-1.5c-.5-.5-1.3-.5-1.8 0l-1.2 1.3c-.6.6-1.4 1-2.3 1H10.8c.4 1.8 1 3.6 1.9 5.2h10.9Zm15.5-20.8c.5 0 .9-.2 1.3-.5l1.7-1.7c.3-.3.7-.5 1.1-.5h.1c.4 0 .8.2 1.1.5l1.4 1.5c.5.5 1.1.8 1.8.8h.9C44.7 14.1 38.8 11 32 11s-12.7 3.1-16.5 7.8h23.6ZM22.3 45c-.7 0-1.4-.3-1.8-.8L19 42.7c-.5-.5-1.3-.5-1.8 0L16 44c-.4.5-1 .8-1.7.9 4.1 5 10.4 8.1 17.6 8.1s13.5-3.1 17.6-8.1H22.3Z"/>
</svg>
