<svg width="64" height="64" viewBox="0 0 64 64" fill="none" xmlns="http://www.w3.org/2000/svg">
  <circle cx="32" cy="32" r="32" fill="#2775CA"/>
  <path fill="#fff" d="M28.8 48.6c0 .7-.6 1.2-1.3 1-8.2-2-14.3-9.2-14.3-17.6s6.1-15.6 14.3-17.6c.7-.2 1.3.4 1.3 1v2.1c0 .5-.3.9-.8 1.1-5.9 1.8-10.2 7.1-10.2 13.4S22.1 43.6 28 45.4c.5.2.8.6.8 1.1v2.1Zm6.4 0c0 .7.6 1.2 1.3 1 8.2-2 14.3-9.2 14.3-17.6s-6.1-15.6-14.3-17.6c-.7-.2-1.3.4-1.3 1v2.1c0 .5.3.9.8 1.1 5.9 1.8 10.2 7.1 10.2 13.4S41.9 43.6 36 45.4c-.5.2-.8.6-.8 1.1v2.1Z"/>
  <path fill="#fff" d="M33.7 42.3v3.2h-3.4v-3.2c-4.5-.6-7.3-3.1-7.9-6.8h4.8c.4 1.8 1.9 3 4.7 3 2.5 0 4.1-1.1 4.1-2.8 0-1.6-1-2.3-4.7-2.9-5.7-.8-8.3-2.6-8.3-6.5 0-3.5 2.8-6.1 7.3-6.7v-3.1h3.4v3.1c4 .5 6.7 2.8 7.3 6.3h-4.7c-.4-1.6-1.7-2.6-4.2-2.6-2.4 0-3.8 1-3.8 2.6 0 1.4 1 2.1 4.7 2.6 5.7.8 8.4 2.7 8.4 6.8 0 3.8-3 6.4-7.7 6.9Z"/>
</svg>
